<svg width="40" height="28" viewBox="0 0 40 28" fill="black" xmlns="http://www.w3.org/2000/svg">
<path d="M10.375 28C7.72083 28 5.45342 27.0813 3.57275 25.2437C1.69092 23.4062 0.75 21.1604 0.75 18.5063C0.75 16.2313 1.43542 14.2042 2.80625 12.425C4.17708 10.6458 5.97083 9.50833 8.1875 9.0125C8.91667 6.32917 10.375 4.15625 12.5625 2.49375C14.75 0.83125 17.2292 0 20 0C23.4125 0 26.307 1.18825 28.6835 3.56475C31.0612 5.94242 32.25 8.8375 32.25 12.25C34.2625 12.4833 35.9326 13.3508 37.2603 14.8523C38.5868 16.3549 39.25 18.1125 39.25 20.125C39.25 22.3125 38.4847 24.1722 36.954 25.704C35.4222 27.2347 33.5625 28 31.375 28H10.375Z" fill="white"/>
</svg>
