<svg width="133" height="42" viewBox="0 0 133 42" fill="none" xmlns="http://www.w3.org/2000/svg">
<path d="M20.92 24.56L20.6 18.76C20.6 18.2267 20.7733 17.76 21.12 17.36C21.4933 16.9333 21.96 16.72 22.52 16.72C23.08 16.72 23.5333 16.9333 23.88 17.36C24.2533 17.76 24.44 18.2267 24.44 18.76C24.44 18.84 24.3733 19.8667 24.24 21.84C24.1333 23.8133 24.08 26.0933 24.08 28.68C24.08 31.24 24.1333 33.6267 24.24 35.84C24.3733 38.0533 24.44 39.36 24.44 39.76C24.44 40.16 24.2533 40.56 23.88 40.96C23.5333 41.36 23.08 41.56 22.52 41.56C21.96 41.56 21.4933 41.36 21.12 40.96C20.7733 40.56 20.6 40.1467 20.6 39.72C20.6 39.2933 20.6533 37.9733 20.76 35.76C20.8667 33.5733 20.9333 31.2667 20.96 28.84V27.16C18.4 29.2133 15.7067 30.24 12.88 30.24C9.41333 30.24 6.49333 29 4.12 26.52C1.77333 24.0133 0.6 20.9867 0.6 17.44C0.6 13.0133 1.92 9.36 4.56 6.48C7.22667 3.6 10.6133 2.16 14.72 2.16C17.0933 2.16 19.2667 2.64 21.24 3.6C23.24 4.53333 24.24 5.61333 24.24 6.84C24.24 7.37333 24.0533 7.82667 23.68 8.2C23.3333 8.57333 22.9067 8.76 22.4 8.76C21.8933 8.76 21.3867 8.56 20.88 8.16C20.3733 7.76 19.88 7.32 19.4 6.84C18.9467 6.33333 18.2133 5.88 17.2 5.48C16.2133 5.08 15.04 4.88 13.68 4.88C10.6133 4.88 8.21333 5.85333 6.48 7.8C4.74667 9.74667 3.88 12.32 3.88 15.52C3.88 18.72 4.82667 21.52 6.72 23.92C8.64 26.32 11.1333 27.52 14.2 27.52C16.6 27.52 18.84 26.5333 20.92 24.56ZM41.9363 24.64C42.1229 25.12 42.5096 25.7733 43.0963 26.6C43.7096 27.4 44.0163 28.0533 44.0163 28.56C44.0163 29.0667 43.8829 29.48 43.6163 29.8C43.3496 30.0933 42.9896 30.24 42.5363 30.24C41.4429 30.24 40.4696 29.1067 39.6163 26.84L39.2963 25.96C37.9363 28.8133 35.8963 30.24 33.1763 30.24C31.8163 30.24 30.6829 29.8133 29.7763 28.96C28.8963 28.08 28.4563 26.9867 28.4563 25.68C28.4563 23.6533 29.1496 21.9067 30.5363 20.44C31.9229 18.9733 33.7363 18.1867 35.9763 18.08C35.4429 17.1467 34.8429 16.4533 34.1763 16C33.5363 15.52 32.9496 15.24 32.4163 15.16C31.8829 15.08 31.3763 15.04 30.8963 15.04C30.4429 15.0133 30.0829 14.9067 29.8163 14.72C29.5496 14.5333 29.4163 14.1733 29.4163 13.64C29.4163 13.08 29.6296 12.6267 30.0563 12.28C30.5096 11.9333 31.0429 11.76 31.6562 11.76C33.3896 11.76 35.0963 12.6267 36.7763 14.36C38.4563 16.0933 39.9229 18.8133 41.1763 22.52L41.9363 24.64ZM34.9763 20.2C34.0163 20.2 33.1496 20.52 32.3763 21.16C31.6296 21.8 31.2563 22.6267 31.2563 23.64C31.2563 24.6533 31.5896 25.5067 32.2563 26.2C32.9496 26.8667 33.7763 27.2 34.7363 27.2C35.6963 27.2 36.5229 26.8667 37.2162 26.2C37.9096 25.5067 38.2563 24.6933 38.2563 23.76C38.2563 23.0933 38.1363 22.48 37.8963 21.92C37.6563 21.3333 37.5096 20.9733 37.4563 20.84C36.7629 20.4133 35.9363 20.2 34.9763 20.2ZM50.7356 18.56L50.9756 28.32C50.9756 28.88 50.8156 29.3467 50.4956 29.72C50.1756 30.0667 49.7623 30.24 49.2556 30.24C48.749 30.24 48.309 30.0667 47.9356 29.72C47.589 29.3467 47.4156 28.88 47.4156 28.32L47.6956 20.4C47.6956 20.4 47.6023 18.1733 47.4156 13.72C47.4156 13.16 47.589 12.6933 47.9356 12.32C48.309 11.9467 48.749 11.76 49.2556 11.76C49.7623 11.76 50.1756 11.9467 50.4956 12.32C50.8156 12.6667 50.9756 13.1067 50.9756 13.64C50.9756 14.1733 50.9623 14.5733 50.9356 14.84C52.429 12.7867 54.149 11.76 56.0956 11.76C58.8956 11.76 60.6956 13.64 61.4956 17.4L63.0156 24.28C63.1756 24.8933 63.4956 25.56 63.9756 26.28C64.4823 26.9733 64.7356 27.6 64.7356 28.16C64.7356 29.5467 64.069 30.24 62.7356 30.24C61.4023 30.24 60.5356 29.1867 60.1356 27.08L58.6156 18.72C58.109 16.0533 56.7356 14.72 54.4956 14.72C53.349 14.72 52.4556 15.1067 51.8156 15.88C51.1756 16.6533 50.8156 17.5467 50.7356 18.56ZM73.1084 30.24C71.4284 30.24 70.0151 29.5733 68.8684 28.24C67.7218 26.9067 67.1484 25.3733 67.1484 23.64C67.1484 21.88 67.4951 20.24 68.1884 18.72C68.8818 17.2 69.7618 15.9467 70.8284 14.96C71.8951 13.9733 73.0418 13.2 74.2684 12.64C75.5218 12.0533 76.8018 11.76 78.1084 11.76C79.4418 11.76 80.6684 12.2533 81.7884 13.24C81.7618 11.24 81.6684 9.05333 81.5084 6.68C81.3484 4.28 81.2684 2.77333 81.2684 2.16C81.2684 1.54667 81.4284 1.04 81.7484 0.639999C82.0684 0.213331 82.4818 -2.38419e-06 82.9884 -2.38419e-06C83.4951 -2.38419e-06 83.9218 0.226665 84.2684 0.679998C84.6418 1.10667 84.8284 1.69333 84.8284 2.44C84.8284 3.16 84.7084 4.86666 84.4684 7.56C84.2551 10.2267 84.1484 12.7333 84.1484 15.08C84.1484 17.4267 84.2418 19.4667 84.4284 21.2C84.6151 22.9067 84.8151 24.0667 85.0284 24.68C85.6418 26.3067 85.9484 27.4 85.9484 27.96C85.9484 29.48 85.3618 30.24 84.1884 30.24C82.7751 30.24 81.9484 28.7333 81.7084 25.72C80.6418 27.1333 79.3618 28.24 77.8684 29.04C76.3751 29.84 74.7884 30.24 73.1084 30.24ZM71.5484 16.68C70.3751 17.8533 69.7884 19.2933 69.7884 21C69.7884 22.7067 70.3751 24.16 71.5484 25.36C72.7484 26.5333 74.1884 27.12 75.8684 27.12C77.5751 27.12 79.0018 26.5333 80.1484 25.36C81.2951 24.16 81.8684 22.6533 81.8684 20.84C81.8684 19.0267 81.3484 17.5867 80.3084 16.52C79.2684 15.4533 77.8418 14.92 76.0284 14.92C74.2418 14.92 72.7484 15.5067 71.5484 16.68ZM103.225 24.64C103.412 25.12 103.799 25.7733 104.385 26.6C104.999 27.4 105.305 28.0533 105.305 28.56C105.305 29.0667 105.172 29.48 104.905 29.8C104.639 30.0933 104.279 30.24 103.825 30.24C102.732 30.24 101.759 29.1067 100.905 26.84L100.585 25.96C99.2253 28.8133 97.1853 30.24 94.4653 30.24C93.1053 30.24 91.972 29.8133 91.0653 28.96C90.1853 28.08 89.7453 26.9867 89.7453 25.68C89.7453 23.6533 90.4386 21.9067 91.8253 20.44C93.212 18.9733 95.0253 18.1867 97.2653 18.08C96.732 17.1467 96.132 16.4533 95.4653 16C94.8253 15.52 94.2386 15.24 93.7053 15.16C93.172 15.08 92.6653 15.04 92.1853 15.04C91.732 15.0133 91.372 14.9067 91.1053 14.72C90.8386 14.5333 90.7053 14.1733 90.7053 13.64C90.7053 13.08 90.9186 12.6267 91.3453 12.28C91.7986 11.9333 92.332 11.76 92.9453 11.76C94.6786 11.76 96.3853 12.6267 98.0653 14.36C99.7453 16.0933 101.212 18.8133 102.465 22.52L103.225 24.64ZM96.2653 20.2C95.3053 20.2 94.4386 20.52 93.6653 21.16C92.9186 21.8 92.5453 22.6267 92.5453 23.64C92.5453 24.6533 92.8786 25.5067 93.5453 26.2C94.2386 26.8667 95.0653 27.2 96.0253 27.2C96.9853 27.2 97.812 26.8667 98.5053 26.2C99.1986 25.5067 99.5453 24.6933 99.5453 23.76C99.5453 23.0933 99.4253 22.48 99.1853 21.92C98.9453 21.3333 98.7986 20.9733 98.7453 20.84C98.052 20.4133 97.2253 20.2 96.2653 20.2ZM108.945 27.08C108.945 16.7067 108.878 10.5067 108.745 8.48C108.505 4.8 108.385 2.65333 108.385 2.04C108.385 1.42666 108.558 0.933331 108.905 0.559998C109.278 0.186664 109.718 -2.38419e-06 110.225 -2.38419e-06C110.731 -2.38419e-06 111.145 0.186664 111.465 0.559998C111.785 0.933331 111.945 1.4 111.945 1.96C111.945 3.64 111.878 5.92 111.745 8.8C111.478 15.5733 111.345 20.6133 111.345 23.92C111.345 24.72 111.598 25.4933 112.105 26.24C112.638 26.96 112.905 27.6133 112.905 28.2C112.905 28.7867 112.705 29.28 112.305 29.68C111.905 30.0533 111.451 30.24 110.945 30.24C109.611 30.24 108.945 29.1867 108.945 27.08ZM117.298 36.92C117.565 35.88 117.818 34.3467 118.058 32.32C118.325 30.2933 118.458 27.9733 118.458 25.36C118.458 22.7467 118.338 19.16 118.098 14.6H116.858C115.818 14.6 115.298 14.1467 115.298 13.24C115.298 12.3333 115.818 11.88 116.858 11.88C117.392 11.88 117.792 11.8933 118.058 11.92C118.165 8.58667 119.418 5.77333 121.818 3.48C124.245 1.16 126.672 -2.38419e-06 129.098 -2.38419e-06C130.058 -2.38419e-06 130.845 0.173331 131.458 0.519998C132.098 0.866665 132.418 1.37333 132.418 2.04C132.418 2.68 132.232 3.18667 131.858 3.56C131.512 3.90667 131.165 4.08 130.818 4.08C130.472 4.08 129.872 3.93333 129.018 3.64C128.165 3.32 127.325 3.16 126.498 3.16C124.845 3.16 123.432 3.89333 122.258 5.36C121.085 6.8 120.498 8.53333 120.498 10.56V12.08H121.778L127.298 11.76C128.338 11.76 128.858 12.2533 128.858 13.24C128.858 14.2267 128.338 14.72 127.298 14.72L121.778 14.4C121.192 14.4 120.765 14.4133 120.498 14.44C120.552 17.3733 120.672 20.6667 120.858 24.32C121.072 27.9733 121.178 31.5733 121.178 35.12C121.178 39.44 120.338 41.6 118.658 41.6C117.485 41.6 116.898 40.84 116.898 39.32C116.898 38.7867 117.032 37.9867 117.298 36.92Z" fill="#fff"/>
</svg>
