<svg width="43" height="34" viewBox="0 0 43 34" fill="none"  xmlns="http://www.w3.org/2000/svg"  >
<path d="M35.9387 0.0139482C30.6597 0.0497038 26.324 2.03285 22.661 5.08976C18.8116 8.30252 15.7844 12.7268 13.4922 17.2561C13.5637 17.6084 13.7727 17.956 14.1426 18.3247C14.6155 18.796 15.3513 19.2724 16.2687 19.7011C18.1034 20.5588 20.6505 21.2303 23.1912 21.6157C25.7319 22.001 28.2804 22.1015 30.0821 21.8847C30.983 21.7762 31.6902 21.5787 32.0821 21.3712C32.474 21.1636 32.5329 21.0616 32.5233 20.8528L32.5894 20.8505C32.2769 17.4996 32.0392 13.903 32.5978 10.5275C32.8564 8.9649 33.3009 7.4422 33.9933 6.01901C31.0984 8.47888 28.2244 11.1379 26.0307 13.4299C29.2781 7.93746 33.9342 3.93173 38.9702 0.209705C37.9272 0.0759144 36.9146 0.00753273 35.9387 0.0141049V0.0139482ZM12.0158 15.395C11.6082 15.3927 11.2007 15.3961 10.7932 15.4052C8.67173 15.4502 6.73811 15.6329 5.1199 15.9676C2.96228 16.4138 1.40963 17.1324 0.647326 18.0042C-0.115248 18.8761 -0.276895 19.9341 0.558389 21.5666C3.57128 27.4552 11.3029 31.7581 19.6153 33.1926C27.9278 34.6267 36.6793 33.2041 41.8297 27.9701C43.0757 26.7038 43.2322 25.6767 42.7409 24.5885C42.2496 23.5004 40.945 22.3291 39.0018 21.2438C37.6498 20.4888 36.0051 19.7778 34.1652 19.129C34.3033 20.8964 34.4912 22.6401 34.635 24.2902V24.3074C34.6907 25.1994 34.1317 25.9962 33.3198 26.4932C32.5081 26.9903 31.4615 27.2819 30.2541 27.4639C27.8392 27.828 24.7503 27.7297 21.6955 27.2927C18.6407 26.8557 15.6362 26.0826 13.4178 24.9993C12.3087 24.4576 11.3874 23.8374 10.7703 23.0848C10.1532 22.3323 9.87542 21.3984 10.1657 20.4736L10.1744 20.4443L10.1859 20.415C10.8861 18.7558 11.6811 17.0671 12.5784 15.4003C12.391 15.3977 12.2035 15.396 12.0161 15.395H12.0158ZM12.6241 19.0458C12.3441 19.6512 12.0747 20.26 11.816 20.8722C11.6698 21.3609 11.7793 21.7647 12.1742 22.2464C12.5753 22.7354 13.3002 23.2575 14.2688 23.7304C16.206 24.6763 19.0733 25.4345 21.9793 25.8503C24.8853 26.2661 27.8489 26.3417 29.9562 26.024C31.0099 25.865 31.8386 25.6 32.32 25.305C32.8013 25.0103 32.9493 24.7787 32.9247 24.3833C32.8773 23.8411 32.8249 23.2859 32.7699 22.7207C32.087 23.036 31.2598 23.2189 30.3202 23.332C28.2359 23.5828 25.5716 23.4623 22.8906 23.0557C20.2095 22.6491 17.5268 21.956 15.4437 20.9823C14.4021 20.4955 13.507 19.9386 12.842 19.2757C12.7665 19.2011 12.6939 19.1245 12.6242 19.0459L12.6241 19.0458Z" fill="#3C65F5"/>
</svg>
