<svg width="11" height="10" viewBox="0 0 11 10" fill="none" xmlns="http://www.w3.org/2000/svg">
<path d="M2.2221 1.11161C2.22195 1.40627 2.10475 1.68881 1.89629 1.89707C1.68782 2.10533 1.40516 2.22225 1.11049 2.2221C0.815825 2.22195 0.533284 2.10475 0.325026 1.89629C0.116768 1.68782 -0.000147195 1.40516 1.39082e-07 1.11049C0.000147473 0.815825 0.117345 0.533284 0.325812 0.325026C0.534278 0.116768 0.816936 -0.000147195 1.1116 1.39082e-07C1.40627 0.000147473 1.68881 0.117345 1.89707 0.325812C2.10533 0.534278 2.22225 0.816936 2.2221 1.11161ZM2.25543 3.04483H0.0333316V10H2.25543V3.04483ZM5.76635 3.04483H3.55536V10H5.74412V6.3502C5.74412 4.31698 8.39398 4.1281 8.39398 6.3502V10H10.5883V5.59469C10.5883 2.1671 6.6663 2.29487 5.74412 3.97811L5.76635 3.04483Z" fill="white"/>
</svg>
