<svg width="13" height="10" viewBox="0 0 13 10" fill="none" xmlns="http://www.w3.org/2000/svg">
<path d="M12.3059 1.17647C11.8529 1.38235 11.3647 1.51765 10.8588 1.58235C11.3765 1.27059 11.7765 0.776471 11.9647 0.182353C11.4765 0.476471 10.9353 0.682353 10.3647 0.8C9.9 0.294118 9.24706 0 8.50588 0C7.12353 0 5.99412 1.12941 5.99412 2.52353C5.99412 2.72353 6.01765 2.91765 6.05882 3.1C3.96471 2.99412 2.1 1.98824 0.858823 0.464706C0.641176 0.835294 0.517647 1.27059 0.517647 1.72941C0.517647 2.60588 0.958823 3.38235 1.64118 3.82353C1.22353 3.82353 0.835294 3.70588 0.494118 3.52941V3.54706C0.494118 4.77059 1.36471 5.79412 2.51765 6.02353C2.14749 6.12483 1.75888 6.13892 1.38235 6.06471C1.54212 6.56616 1.85502 7.00495 2.27707 7.31937C2.69912 7.6338 3.20909 7.80805 3.73529 7.81765C2.84331 8.52379 1.73764 8.90548 0.6 8.9C0.4 8.9 0.2 8.88824 0 8.86471C1.11765 9.58235 2.44706 10 3.87059 10C8.50588 10 11.0529 6.15294 11.0529 2.81765C11.0529 2.70588 11.0529 2.6 11.0471 2.48824C11.5412 2.13529 11.9647 1.68824 12.3059 1.17647Z" fill="white"/>
</svg>
