<svg width="10" height="10" viewBox="0 0 10 10" fill="none" xmlns="http://www.w3.org/2000/svg">
<path d="M5 3.5C4.60218 3.5 4.22064 3.65804 3.93934 3.93934C3.65804 4.22064 3.5 4.60218 3.5 5C3.5 5.39782 3.65804 5.77936 3.93934 6.06066C4.22064 6.34196 4.60218 6.5 5 6.5C5.39782 6.5 5.77936 6.34196 6.06066 6.06066C6.34196 5.77936 6.5 5.39782 6.5 5C6.5 4.60218 6.34196 4.22064 6.06066 3.93934C5.77936 3.65804 5.39782 3.5 5 3.5ZM5 2.5C5.66304 2.5 6.29893 2.76339 6.76777 3.23223C7.23661 3.70107 7.5 4.33696 7.5 5C7.5 5.66304 7.23661 6.29893 6.76777 6.76777C6.29893 7.23661 5.66304 7.5 5 7.5C4.33696 7.5 3.70107 7.23661 3.23223 6.76777C2.76339 6.29893 2.5 5.66304 2.5 5C2.5 4.33696 2.76339 3.70107 3.23223 3.23223C3.70107 2.76339 4.33696 2.5 5 2.5ZM8.25 2.375C8.25 2.54076 8.18415 2.69973 8.06694 2.81694C7.94973 2.93415 7.79076 3 7.625 3C7.45924 3 7.30027 2.93415 7.18306 2.81694C7.06585 2.69973 7 2.54076 7 2.375C7 2.20924 7.06585 2.05027 7.18306 1.93306C7.30027 1.81585 7.45924 1.75 7.625 1.75C7.79076 1.75 7.94973 1.81585 8.06694 1.93306C8.18415 2.05027 8.25 2.20924 8.25 2.375ZM5 1C3.763 1 3.561 1.0035 2.9855 1.029C2.5935 1.0475 2.3305 1.1 2.0865 1.195C1.88231 1.26997 1.69771 1.39013 1.5465 1.5465C1.39 1.6977 1.26968 1.88229 1.1945 2.0865C1.0995 2.3315 1.047 2.594 1.029 2.9855C1.003 3.5375 1 3.7305 1 5C1 6.237 1.0035 6.439 1.029 7.0145C1.0475 7.406 1.1 7.6695 1.1945 7.913C1.2795 8.1305 1.3795 8.287 1.5455 8.453C1.714 8.621 1.8705 8.7215 2.0855 8.8045C2.3325 8.9 2.5955 8.953 2.9855 8.971C3.5375 8.997 3.7305 9 5 9C6.237 9 6.439 8.9965 7.0145 8.971C7.4055 8.9525 7.669 8.9 7.913 8.8055C8.11688 8.73015 8.30137 8.61024 8.453 8.4545C8.6215 8.286 8.722 8.1295 8.805 7.9145C8.9 7.668 8.953 7.4045 8.971 7.0145C8.997 6.4625 9 6.2695 9 5C9 3.763 8.9965 3.561 8.971 2.9855C8.9525 2.5945 8.9 2.3305 8.805 2.0865C8.72965 1.8825 8.60954 1.69798 8.4535 1.5465C8.30237 1.38992 8.11775 1.26958 7.9135 1.1945C7.6685 1.0995 7.4055 1.047 7.0145 1.029C6.4625 1.003 6.2695 1 5 1ZM5 0C6.3585 0 6.528 0.00499997 7.061 0.03C7.5935 0.055 7.956 0.1385 8.275 0.2625C8.605 0.3895 8.883 0.5615 9.161 0.839C9.41525 1.08895 9.61198 1.39129 9.7375 1.725C9.861 2.0435 9.945 2.4065 9.97 2.939C9.9935 3.472 10 3.6415 10 5C10 6.3585 9.995 6.528 9.97 7.061C9.945 7.5935 9.861 7.956 9.7375 8.275C9.61234 8.60889 9.41556 8.91131 9.161 9.161C8.91098 9.41516 8.60865 9.61188 8.275 9.7375C7.9565 9.861 7.5935 9.945 7.061 9.97C6.528 9.9935 6.3585 10 5 10C3.6415 10 3.472 9.995 2.939 9.97C2.4065 9.945 2.044 9.861 1.725 9.7375C1.39116 9.61224 1.08876 9.41547 0.839 9.161C0.584703 8.91109 0.387966 8.60873 0.2625 8.275C0.1385 7.9565 0.055 7.5935 0.03 7.061C0.00649997 6.528 0 6.3585 0 5C0 3.6415 0.00499997 3.472 0.03 2.939C0.055 2.406 0.1385 2.044 0.2625 1.725C0.387618 1.39109 0.584402 1.08866 0.839 0.839C1.08884 0.584616 1.39121 0.387865 1.725 0.2625C2.044 0.1385 2.406 0.055 2.939 0.03C3.472 0.00649997 3.6415 0 5 0Z" fill="white"/>
</svg>
