<svg width="34" height="34" viewBox="0 0 34 34" fill="none" xmlns="http://www.w3.org/2000/svg">
<path d="M25.083 3.66634V3.91634H25.333H28.6663C29.9261 3.91634 31.1343 4.41679 32.0251 5.30758C32.9159 6.19838 33.4163 7.40656 33.4163 8.66634V28.6663C33.4163 29.9261 32.9159 31.1343 32.0251 32.0251C31.1343 32.9159 29.9261 33.4163 28.6663 33.4163H5.33301C4.07323 33.4163 2.86505 32.9159 1.97425 32.0251C1.08345 31.1343 0.583008 29.9261 0.583008 28.6663V8.66634C0.583008 7.40656 1.08345 6.19838 1.97425 5.30758C2.86505 4.41679 4.07323 3.91634 5.33301 3.91634H8.66634H8.91634V3.66634V1.99967C8.91634 1.62395 9.0656 1.26362 9.33127 0.99794C9.59695 0.732263 9.95728 0.583008 10.333 0.583008C10.7087 0.583008 11.0691 0.732263 11.3347 0.99794C11.6004 1.26362 11.7497 1.62395 11.7497 1.99967V3.66634V3.91634H11.9997H21.9997H22.2497V3.66634V1.99967C22.2497 1.62395 22.3989 1.26362 22.6646 0.99794C22.9303 0.732263 23.2906 0.583008 23.6663 0.583008C24.0421 0.583008 24.4024 0.732264 24.6681 0.997939C24.9338 1.26362 25.083 1.62395 25.083 1.99967V3.66634ZM3.66634 16.7497H3.41634V16.9997V28.6663C3.41634 29.1747 3.61828 29.6622 3.97772 30.0216C4.33716 30.3811 4.82468 30.583 5.33301 30.583H28.6663C29.1747 30.583 29.6622 30.3811 30.0216 30.0216C30.3811 29.6622 30.583 29.1747 30.583 28.6663V16.9997V16.7497H30.333H3.66634ZM30.333 13.9163H30.583V13.6663V8.66634C30.583 8.15801 30.3811 7.6705 30.0216 7.31105C29.6622 6.95161 29.1747 6.74967 28.6663 6.74967H25.333H25.083V6.99967V8.66634C25.083 9.04206 24.9338 9.4024 24.6681 9.66807C24.4024 9.93375 24.0421 10.083 23.6663 10.083C23.2906 10.083 22.9303 9.93375 22.6646 9.66807C22.3989 9.4024 22.2497 9.04206 22.2497 8.66634V6.99967V6.74967H21.9997H11.9997H11.7497V6.99967V8.66634C11.7497 9.04206 11.6004 9.4024 11.3347 9.66807C11.0691 9.93375 10.7087 10.083 10.333 10.083C9.95728 10.083 9.59695 9.93375 9.33127 9.66807C9.0656 9.4024 8.91634 9.04206 8.91634 8.66634V6.99967V6.74967H8.66634H5.33301C4.82468 6.74967 4.33716 6.95161 3.97772 7.31105C3.61828 7.6705 3.41634 8.15801 3.41634 8.66634V13.6663V13.9163H3.66634H30.333Z" fill="#3C65F5" stroke="white" stroke-width="0.5"/>
</svg>
