<svg width="74" height="74" viewBox="0 0 74 74" fill="none" xmlns="http://www.w3.org/2000/svg">
<path d="M36.9997 0.333008C16.7597 0.333008 0.333008 16.7597 0.333008 36.9997C0.333008 57.2397 16.7597 73.6663 36.9997 73.6663C57.2397 73.6663 73.6663 57.2397 73.6663 36.9997C73.6663 16.7597 57.2397 0.333008 36.9997 0.333008ZM36.9997 66.333C20.8297 66.333 7.66634 53.1697 7.66634 36.9997C7.66634 20.8297 20.8297 7.66634 36.9997 7.66634C53.1697 7.66634 66.333 20.8297 66.333 36.9997C66.333 53.1697 53.1697 66.333 36.9997 66.333ZM53.8297 20.793L29.6663 44.9563L20.1697 35.4963L14.9997 40.6663L29.6663 55.333L58.9997 25.9997L53.8297 20.793Z" fill="#00BA3E"/>
</svg>
