<svg width="15" height="15" viewBox="0 0 15 15" fill="red" xmlns="http://www.w3.org/2000/svg">
<path fill-rule="evenodd" clip-rule="evenodd" d="M14.6363 1.72016C14.7254 1.63119 14.7961 1.52555 14.8444 1.40926C14.8926 1.29297 14.9175 1.16832 14.9176 1.04242C14.9176 0.916516 14.8929 0.791833 14.8448 0.675486C14.7967 0.55914 14.7261 0.453407 14.6372 0.364327C14.5482 0.275247 14.4426 0.204564 14.3263 0.156312C14.21 0.108061 14.0853 0.0831862 13.9594 0.0831088C13.8335 0.0830314 13.7088 0.107753 13.5925 0.155861C13.4761 0.20397 13.3704 0.274524 13.2813 0.363494L7.49967 6.14516L1.71967 0.363494C1.53977 0.183589 1.29576 0.0825195 1.04134 0.0825195C0.786915 0.0825195 0.542911 0.183589 0.363006 0.363494C0.183101 0.543399 0.0820313 0.787403 0.0820312 1.04183C0.0820312 1.29625 0.183101 1.54026 0.363006 1.72016L6.14467 7.50016L0.363006 13.2802C0.273926 13.3692 0.203264 13.475 0.155054 13.5914C0.106844 13.7078 0.0820312 13.8325 0.0820312 13.9585C0.0820312 14.0845 0.106844 14.2092 0.155054 14.3256C0.203264 14.442 0.273926 14.5477 0.363006 14.6368C0.542911 14.8167 0.786915 14.9178 1.04134 14.9178C1.16732 14.9178 1.29206 14.893 1.40845 14.8448C1.52484 14.7966 1.63059 14.7259 1.71967 14.6368L7.49967 8.85516L13.2813 14.6368C13.4612 14.8165 13.7052 14.9174 13.9594 14.9172C14.2137 14.9171 14.4575 14.8159 14.6372 14.636C14.8169 14.4561 14.9177 14.2122 14.9176 13.9579C14.9174 13.7036 14.8162 13.4598 14.6363 13.2802L8.85467 7.50016L14.6363 1.72016Z" fill="red"/>
</svg>
