<svg width="25" height="28" viewBox="0 0 25 28" fill="none" xmlns="http://www.w3.org/2000/svg">
<path d="M24.1003 17.1497L21.5625 14.6119V11.25C21.5596 8.92672 20.6953 6.68705 19.1368 4.96405C17.5784 3.24105 15.4363 2.15712 13.125 1.92188V0H11.25V1.92188C8.93866 2.15712 6.79665 3.24105 5.23816 4.96405C3.67967 6.68705 2.81541 8.92672 2.8125 11.25V14.6119L0.274687 17.1497C0.09886 17.3255 5.30976e-05 17.5639 0 17.8125V20.625C0 20.8736 0.098772 21.1121 0.274587 21.2879C0.450403 21.4637 0.68886 21.5625 0.9375 21.5625H7.5V22.2909C7.47961 23.4803 7.89882 24.6353 8.6773 25.5347C9.45578 26.4341 10.5388 27.0146 11.7188 27.165C12.3705 27.2296 13.0285 27.1571 13.6506 26.9522C14.2726 26.7472 14.8448 26.4144 15.3305 25.975C15.8162 25.5356 16.2045 24.9994 16.4705 24.4009C16.7365 23.8025 16.8743 23.1549 16.875 22.5V21.5625H23.4375C23.6861 21.5625 23.9246 21.4637 24.1004 21.2879C24.2762 21.1121 24.375 20.8736 24.375 20.625V17.8125C24.3749 17.5639 24.2761 17.3255 24.1003 17.1497ZM15 22.5C15 23.2459 14.7037 23.9613 14.1762 24.4887C13.6488 25.0162 12.9334 25.3125 12.1875 25.3125C11.4416 25.3125 10.7262 25.0162 10.1988 24.4887C9.67132 23.9613 9.375 23.2459 9.375 22.5V21.5625H15V22.5ZM22.5 19.6875H1.875V18.2006L4.41281 15.6628C4.58864 15.487 4.68745 15.2486 4.6875 15V11.25C4.6875 9.26088 5.47768 7.35322 6.8842 5.9467C8.29072 4.54018 10.1984 3.75 12.1875 3.75C14.1766 3.75 16.0843 4.54018 17.4908 5.9467C18.8973 7.35322 19.6875 9.26088 19.6875 11.25V15C19.6876 15.2486 19.7864 15.487 19.9622 15.6628L22.5 18.2006V19.6875Z" fill="#05264E"/>
</svg>
