<svg width="16" height="21" viewBox="0 0 16 21" fill="none" xmlns="http://www.w3.org/2000/svg">
<path d="M11 7.1H11.1V7V5C11.1 4.14045 10.798 3.40659 10.1957 2.80429C9.59341 2.20199 8.85955 1.9 8 1.9C7.14045 1.9 6.40659 2.20199 5.80429 2.80429C5.22548 3.3831 4.92401 4.0834 4.90138 4.9H3.10087C3.12382 3.58632 3.60078 2.46564 4.53371 1.53271C5.48955 0.576873 6.64308 0.1 8 0.1C9.3569 0.1 10.5108 0.576859 11.4673 1.53269C12.4231 2.4892 12.9 3.64308 12.9 5V7V7.1H13H14C14.5232 7.1 14.9689 7.28497 15.3422 7.65765C15.715 8.03105 15.9 8.4767 15.9 9V19C15.9 19.5233 15.715 19.9689 15.3422 20.3424C14.9689 20.715 14.5232 20.9 14 20.9H2C1.47671 20.9 1.03142 20.715 0.65871 20.3423C0.285296 19.9689 0.1 19.5232 0.1 19V9C0.1 8.47676 0.285296 8.03113 0.658711 7.65771C1.03142 7.285 1.47671 7.1 2 7.1H11ZM1.9 19V19.1H2H14H14.1V19V9V8.9H14H2H1.9V9V19ZM9.34229 15.3423C8.9689 15.715 8.52327 15.9 8 15.9C7.47671 15.9 7.03142 15.715 6.65871 15.3423C6.2853 14.9689 6.1 14.5232 6.1 14C6.1 13.4768 6.2853 13.0311 6.65871 12.6577C7.03142 12.285 7.47671 12.1 8 12.1C8.52327 12.1 8.9689 12.285 9.34229 12.6577C9.71502 13.0311 9.9 13.4767 9.9 14C9.9 14.5233 9.71502 14.9689 9.34229 15.3423Z" fill="#05264E" stroke="white" stroke-width="0.2"/>
</svg>
